<?xml version="1.0" encoding="UTF-8" standalone="no"?>
<svg
   width="364.18073"
   height="364.18042"
   viewBox="0 0 364.18073 364.18042"
   version="1.1"
   id="svg856"
   sodipodi:docname="DIdiserv New Logo Design.svg"
   inkscape:export-filename="..\..\..\Users\siphe\Didiserv SVG 2024 July.svg"
   inkscape:export-xdpi="15.973997"
   inkscape:export-ydpi="15.973997"
   inkscape:version="1.1.1 (3bf5ae0d25, 2021-09-20)"
   xmlns:inkscape="http://www.inkscape.org/namespaces/inkscape"
   xmlns:sodipodi="http://sodipodi.sourceforge.net/DTD/sodipodi-0.dtd"
   xmlns:xlink="http://www.w3.org/1999/xlink"
   xmlns="http://www.w3.org/2000/svg"
   xmlns:svg="http://www.w3.org/2000/svg">
  <sodipodi:namedview
     id="namedview858"
     pagecolor="#ffffff"
     bordercolor="#666666"
     borderopacity="1.0"
     inkscape:pageshadow="2"
     inkscape:pageopacity="0.0"
     inkscape:pagecheckerboard="0"
     showgrid="false"
     inkscape:zoom="0.43391148"
     inkscape:cx="898.80083"
     inkscape:cy="175.15093"
     inkscape:window-width="1920"
     inkscape:window-height="1046"
     inkscape:window-x="-11"
     inkscape:window-y="-11"
     inkscape:window-maximized="1"
     inkscape:current-layer="svg856"
     width="1e-05in"
     units="px"
     inkscape:showpageshadow="0"
     inkscape:deskcolor="#505050" />
  <defs
     id="defs845">
    <linearGradient
       id="linearGradient5"
       inkscape:swatch="gradient">
      <stop
         style="stop-color:#001ef0;stop-opacity:1;"
         offset="0"
         id="stop5" />
      <stop
         style="stop-color:#8600f0;stop-opacity:1;"
         offset="1"
         id="stop6" />
    </linearGradient>
    <linearGradient
       id="linearGradient3"
       inkscape:swatch="gradient">
      <stop
         style="stop-color:#ffffe5;stop-opacity:1;"
         offset="0"
         id="stop3" />
      <stop
         style="stop-color:#fbffff;stop-opacity:1;"
         offset="1"
         id="stop4" />
    </linearGradient>
    <filter
       height="1.0000017"
       y="-8.3979306e-07"
       width="1.0000042"
       x="-2.1012928e-06"
       id="filter1781-1"
       style="color-interpolation-filters:sRGB">
      <feGaussianBlur
         id="feGaussianBlur1783-2"
         stdDeviation="6.7382323e-05" />
    </filter>
    <linearGradient
       inkscape:collect="always"
       xlink:href="#linearGradient5"
       id="linearGradient27"
       gradientUnits="userSpaceOnUse"
       gradientTransform="matrix(21.549438,21.549438,-21.549438,21.549438,-492.51375,-24924.443)"
       x1="657.29529"
       y1="618.94122"
       x2="666.27911"
       y2="618.94122" />
    <linearGradient
       inkscape:collect="always"
       xlink:href="#linearGradient3"
       id="linearGradient28"
       gradientUnits="userSpaceOnUse"
       x1="112.10925"
       y1="172.74121"
       x2="189.07056"
       y2="172.74121" />
  </defs>
  <g
     id="g31"
     transform="translate(-670.05023,-2474.3958)">
    <path
       id="path28"
       style="display:inline;fill:none;fill-rule:evenodd;stroke-width:12.6431;stroke-dasharray:none"
       d="m 852.14053,2474.3957 c -22.57784,0 -45.1559,8.65 -62.45623,25.9502 l -93.68364,93.6837 c -34.6006,34.6006 -34.60059,90.312 0,124.9126 l 93.68364,93.6837 c 34.60056,34.6005 90.31199,34.6005 124.91255,0 l 93.68365,-93.6837 c 34.6006,-34.6007 34.6006,-90.312 0,-124.9126 l -93.68365,-93.6837 c -17.30033,-17.3003 -39.87848,-25.9502 -62.45632,-25.9502 z m 9e-5,11.7892 c 21.116,-1e-4 42.23225,8.0905 58.41237,24.2706 l 87.6179,87.6179 c 32.36041,32.3604 32.36051,84.4644 0,116.825 l -87.6179,87.6194 c -32.36032,32.3603 -84.46443,32.3603 -116.82483,0 l -87.61795,-87.6194 c -32.36037,-32.3605 -32.36036,-84.4645 0,-116.825 l 87.61787,-87.6179 c 16.18029,-16.1801 37.29645,-24.2706 58.41254,-24.2706 z m 0,13.6247 c -19.4268,0 -38.85321,7.4423 -53.73902,22.3281 l -80.60921,80.6093 c -29.77153,29.7714 -29.7716,77.7063 2e-5,107.4779 l 80.60927,80.6093 c 29.77149,29.7714 77.7063,29.7714 107.47786,0 l 80.60924,-80.6093 c 29.77162,-29.7716 29.77162,-77.7063 0,-107.4779 l -80.60924,-80.6093 c -14.88574,-14.8858 -34.31214,-22.3281 -53.73892,-22.3281 z" />
    <g
       id="g30"
       transform="translate(421.3449,-18.047725)">
      <g
         id="g29">
        <path
           id="path25"
           style="display:inline;fill:url(#linearGradient27);fill-rule:evenodd;stroke-width:11.1972;stroke-dasharray:none"
           d="m 430.79564,2513.2677 c -19.99578,0 -39.99177,7.6608 -55.31359,22.9825 l -82.96976,82.9698 c -30.64359,30.6436 -30.64358,79.9837 0,110.6273 l 82.96976,82.9698 c 30.64356,30.6435 79.98369,30.6435 110.62725,0 l 82.9698,-82.9698 c 30.64356,-30.6437 30.64356,-79.9837 0,-110.6273 l -82.9698,-82.9698 c -15.32182,-15.3218 -35.31788,-22.9825 -55.31366,-22.9825 z m 7e-5,10.441 c 18.70113,-1e-4 37.40247,7.1652 51.7322,21.4949 l 77.59771,77.5977 c 28.65959,28.6596 28.65966,74.8049 0,103.4646 l -77.59771,77.5991 c -28.65952,28.6595 -74.80488,28.6595 -103.46447,0 l -77.59775,-77.5991 c -28.65956,-28.6596 -28.65955,-74.8049 0,-103.4646 l 77.59768,-77.5977 c 14.32987,-14.3297 33.03114,-21.4949 51.73234,-21.4949 z m 0,12.0665 c -17.2051,0 -34.40985,6.5912 -47.59329,19.7746 l -71.39055,71.3906 c -26.36679,26.3667 -26.36685,68.8197 2e-5,95.1865 l 71.3906,71.3906 c 26.36675,26.3667 68.81962,26.3667 95.18644,0 l 71.39057,-71.3906 c 26.36682,-26.3668 26.36682,-68.8196 0,-95.1865 l -71.39057,-71.3906 c -13.18337,-13.1834 -30.38812,-19.7746 -47.59322,-19.7746 z" />
      </g>
      <path
         id="path26"
         style="color:#000000;font-style:normal;font-variant:normal;font-weight:normal;font-stretch:normal;font-size:medium;line-height:normal;font-family:sans-serif;font-variant-ligatures:normal;font-variant-position:normal;font-variant-caps:normal;font-variant-numeric:normal;font-variant-alternates:normal;font-variant-east-asian:normal;font-feature-settings:normal;font-variation-settings:normal;text-indent:0;text-align:start;text-decoration:none;text-decoration-line:none;text-decoration-style:solid;text-decoration-color:#000000;letter-spacing:normal;word-spacing:normal;text-transform:none;writing-mode:lr-tb;direction:ltr;text-orientation:mixed;dominant-baseline:auto;baseline-shift:baseline;text-anchor:start;white-space:normal;shape-padding:0;shape-margin:0;inline-size:0;clip-rule:nonzero;display:inline;overflow:visible;visibility:visible;isolation:auto;mix-blend-mode:normal;color-interpolation:sRGB;color-interpolation-filters:linearRGB;solid-color:#000000;solid-opacity:1;fill:url(#linearGradient28);fill-opacity:1;fill-rule:nonzero;stroke:none;stroke-width:8.66645;stroke-linecap:round;stroke-linejoin:round;stroke-miterlimit:4;stroke-dasharray:none;stroke-dashoffset:0;stroke-opacity:1;filter:url(#filter1781-1);color-rendering:auto;image-rendering:auto;shape-rendering:auto;text-rendering:auto;enable-background:accumulate;stop-color:#000000"
         d="m 116.98242,76.457031 a 4.3246053,4.3246053 0 0 0 -4.32422,4.324219 4.3246053,4.3246053 0 0 0 0.002,0.08984 c 0.0484,21.00855 17.18353,38.1172 38.20312,38.11719 21.0102,0 38.14136,-17.09415 38.20508,-38.089846 a 4.3246053,4.3246053 0 0 0 0.002,-0.117188 4.3246053,4.3246053 0 0 0 -4.32617,-4.324219 z m 4.63086,8.650391 h 58.50195 c -2.08116,14.313872 -14.34298,25.238278 -29.25195,25.238278 -14.90898,0 -27.16902,-10.924402 -29.25,-25.238278 z m 9.34961,39.255858 a 2.9138079,2.9138079 0 0 0 -2.91601,2.91602 2.9138079,2.9138079 0 0 0 2.91601,2.9082 h 38.70313 a 2.9138079,2.9138079 0 0 0 2.91601,-2.9082 2.9138079,2.9138079 0 0 0 -2.91601,-2.91602 z m 0.043,15.51563 a 2.9138079,2.9138079 0 0 0 -2.91602,2.9082 2.9138079,2.9138079 0 0 0 2.91602,2.91601 h 38.61523 a 2.9138079,2.9138079 0 0 0 2.91602,-2.91601 2.9138079,2.9138079 0 0 0 -2.91602,-2.9082 z m -3.11524,15.50976 a 2.9138079,2.9138079 0 0 0 -2.91601,2.91602 2.9138079,2.9138079 0 0 0 2.91601,2.91601 h 44.84571 a 2.9138079,2.9138079 0 0 0 2.91601,-2.91601 2.9138079,2.9138079 0 0 0 -2.91601,-2.91602 z m -2.92187,15.51758 a 2.9138079,2.9138079 0 0 0 -2.91602,2.91602 2.9138079,2.9138079 0 0 0 2.91602,2.9082 h 50.69727 a 2.9138079,2.9138079 0 0 0 2.91015,-2.9082 2.9138079,2.9138079 0 0 0 -2.91015,-2.91602 z m -2.82031,15.50781 a 2.9138079,2.9138079 0 0 0 -2.90821,2.91602 2.9138079,2.9138079 0 0 0 2.90821,2.91601 h 56.33008 a 2.9138079,2.9138079 0 0 0 2.91601,-2.91601 2.9138079,2.9138079 0 0 0 -2.91601,-2.91602 z m -3.6836,15.51758 a 2.9138079,2.9138079 0 0 0 -2.9082,2.91602 2.9138079,2.9138079 0 0 0 2.9082,2.91601 h 63.69727 a 2.9138079,2.9138079 0 0 0 2.91601,-2.91601 2.9138079,2.9138079 0 0 0 -2.91601,-2.91602 z m -3.43945,15.51758 a 2.9138079,2.9138079 0 0 0 -2.91601,2.9082 2.9138079,2.9138079 0 0 0 2.91601,2.91602 h 70.57813 a 2.9138079,2.9138079 0 0 0 2.91601,-2.91602 2.9138079,2.9138079 0 0 0 -2.91601,-2.9082 z m 12.85156,15.85547 a 2.5706455,2.5706455 0 0 0 -2.57031,2.56836 2.5706455,2.5706455 0 0 0 2.57031,2.57031 h 44.875 a 2.5706455,2.5706455 0 0 0 2.56836,-2.57031 2.5706455,2.5706455 0 0 0 -2.56836,-2.56836 z m 15.73828,15.39062 a 2.6911748,2.6911748 0 0 0 -2.69531,2.69531 2.6911748,2.6911748 0 0 0 2.69531,2.6875 h 13.39844 a 2.6911748,2.6911748 0 0 0 2.69336,-2.6875 2.6911748,2.6911748 0 0 0 -2.69336,-2.69531 z m 5.49805,16.07813 a 2.1255873,2.1255873 0 0 0 -2.125,2.12695 2.1255873,2.1255873 0 0 0 2.125,2.125 h 2.4082 a 2.1255873,2.1255873 0 0 0 2.125,-2.125 2.1255873,2.1255873 0 0 0 -2.125,-2.12695 z"
         transform="matrix(1.1666554,0,0,1.1666554,255.10916,2473.0042)" />
    </g>
  </g>
</svg>
